<svg width="83" height="49" viewBox="0 0 83 49" fill="none" xmlns="http://www.w3.org/2000/svg">
<path d="M7.17188 2.10938H6.89062C5.46875 2.10938 4.39844 2.43359 3.67969 3.08203C2.8125 3.86328 2.37891 5.15625 2.37891 6.96094C2.37891 7.46094 2.43359 7.85938 2.54297 8.15625C2.57422 8.25781 2.61328 8.34766 2.66016 8.42578C2.69141 8.48047 2.70703 8.53516 2.70703 8.58984C1.83984 8.58984 1.20703 8.41797 0.808594 8.07422C0.363281 7.69922 0.140625 7.09766 0.140625 6.26953C0.140625 5.44141 0.292969 4.65625 0.597656 3.91406C0.910156 3.16406 1.38281 2.50781 2.01562 1.94531C2.69531 1.33594 3.55859 0.863281 4.60547 0.527344C5.66016 0.191406 6.90234 0.0234375 8.33203 0.0234375C9.15234 0.0234375 9.9375 0.0703125 10.6875 0.164062C10.9219 0.1875 11.2266 0.230469 11.6016 0.292969C12.2266 0.410156 12.8281 0.488281 13.4062 0.527344C13.6875 0.558594 14.043 0.574219 14.4727 0.574219C15.0039 0.574219 15.5117 0.527344 15.9961 0.433594C16.4805 0.339844 16.9023 0.21875 17.2617 0.0703125C17.2227 1.11719 16.9531 1.88672 16.4531 2.37891C15.9609 2.87109 15.2305 3.11719 14.2617 3.11719C13.7383 3.11719 13.2109 3.07422 12.6797 2.98828C12.1484 2.90234 11.4336 2.76953 10.5352 2.58984L7.21875 18H3.77344L7.17188 2.10938ZM15.0586 18.0938C13.8711 18.0938 12.9531 17.8047 12.3047 17.2266C11.5781 16.5859 11.2148 15.6133 11.2148 14.3086C11.2148 13.8164 11.2656 13.2734 11.3672 12.6797C11.4688 12.0781 11.625 11.4727 11.8359 10.8633C12.3203 9.41016 13.0117 8.25 13.9102 7.38281C14.9961 6.32031 16.2891 5.78906 17.7891 5.78906C19.8438 5.78906 20.8711 7.06641 20.8711 9.62109V9.64453C20.918 9.66016 20.957 9.66797 20.9883 9.66797H21.1289C21.6602 9.66797 22.2891 9.51953 23.0156 9.22266C23.6562 8.95703 24.2617 8.625 24.832 8.22656L25.043 8.88281C24.5742 9.375 23.9688 9.79297 23.2266 10.1367C22.4922 10.4805 21.6797 10.7266 20.7891 10.875C20.6953 11.9609 20.4844 12.9531 20.1562 13.8516C19.8281 14.7422 19.4062 15.5078 18.8906 16.1484C18.3828 16.7734 17.8008 17.2539 17.1445 17.5898C16.4883 17.9258 15.793 18.0938 15.0586 18.0938ZM16.0195 15.9375C16.3008 15.9375 16.5859 15.8125 16.875 15.5625C17.1719 15.3047 17.4492 14.9492 17.707 14.4961C17.9648 14.043 18.1875 13.5117 18.375 12.9023C18.5625 12.293 18.7031 11.6406 18.7969 10.9453C18.5625 10.8828 18.3945 10.7656 18.293 10.5938C18.1992 10.4219 18.1523 10.2031 18.1523 9.9375C18.1523 9.60938 18.2188 9.33594 18.3516 9.11719C18.4844 8.89844 18.668 8.73828 18.9023 8.63672C18.8711 8.12891 18.7891 7.76562 18.6562 7.54688C18.5859 7.4375 18.4961 7.35938 18.3867 7.3125C18.2852 7.26562 18.1523 7.24219 17.9883 7.24219C17.4492 7.24219 16.9219 7.64844 16.4062 8.46094C15.9297 9.19531 15.5391 10.1016 15.2344 11.1797C14.9375 12.2344 14.7891 13.1719 14.7891 13.9922C14.7891 14.3906 14.8086 14.7148 14.8477 14.9648C14.8945 15.2148 14.9688 15.4102 15.0703 15.5508C15.1641 15.6914 15.2852 15.793 15.4336 15.8555C15.582 15.9102 15.7773 15.9375 16.0195 15.9375ZM30.7617 18.1406C29.7695 18.1406 29.0352 17.8594 28.5586 17.2969C28.1445 16.8125 27.9375 16.1914 27.9375 15.4336C27.9375 15.0742 27.9805 14.6562 28.0664 14.1797C28.1602 13.7031 28.2969 13.0898 28.4766 12.3398C28.6562 11.5742 28.7891 10.9648 28.875 10.5117C28.9688 10.0508 29.0156 9.65234 29.0156 9.31641C29.0156 8.49609 28.7266 8.08594 28.1484 8.08594C27.7422 8.08594 27.3672 8.30078 27.0234 8.73047C26.7344 9.09766 26.4844 9.62109 26.2734 10.3008L24.6445 18H21.1875L23.7305 6H27.1875L26.9297 7.24219C27.3984 6.71875 27.9023 6.35156 28.4414 6.14062C28.8398 5.98438 29.2695 5.90625 29.7305 5.90625C30.543 5.90625 31.1836 6.11719 31.6523 6.53906C32.1523 7 32.4023 7.69141 32.4023 8.61328C32.4023 9.16797 32.3008 9.89062 32.0977 10.7812C32.043 11.0391 31.9531 11.4258 31.8281 11.9414C31.6016 12.8086 31.4375 13.5 31.3359 14.0156C31.2734 14.3438 31.2422 14.6094 31.2422 14.8125C31.2422 15.1328 31.3125 15.3828 31.4531 15.5625C31.6016 15.7344 31.8516 15.8203 32.2031 15.8203C32.6797 15.8203 33.082 15.625 33.4102 15.2344C33.6602 14.9375 33.9297 14.4258 34.2188 13.6992H35.2266C34.6328 15.457 33.8828 16.6875 32.9766 17.3906C32.3359 17.8906 31.5977 18.1406 30.7617 18.1406ZM37.957 24C37.582 24 37.2305 23.9492 36.9023 23.8477C36.582 23.7539 36.3047 23.6094 36.0703 23.4141C35.8203 23.2188 35.625 22.9727 35.4844 22.6758C35.3438 22.3867 35.2734 22.0508 35.2734 21.668C35.2734 20.7617 35.6992 19.9844 36.5508 19.3359C37.1914 18.8594 38.0703 18.4453 39.1875 18.0938L39.4805 16.8047C39.0117 17.3203 38.5039 17.6836 37.957 17.8945C37.5352 18.0586 37.082 18.1406 36.5977 18.1406C35.832 18.1406 35.2266 17.9141 34.7812 17.4609C34.2812 16.9609 34.0312 16.2305 34.0312 15.2695C34.0312 14.8164 34.0938 14.293 34.2188 13.6992L35.8477 6H39.3047L37.582 14.1562C37.5352 14.3516 37.5117 14.5547 37.5117 14.7656C37.5117 15.0703 37.5625 15.3125 37.6641 15.4922C37.7812 15.7109 37.9688 15.8203 38.2266 15.8203C38.6484 15.8203 39.0273 15.6328 39.3633 15.2578C39.6523 14.9375 39.8984 14.4688 40.1016 13.8516L41.7773 6H45.2344L42.8555 17.1328C43.6133 16.8828 44.2188 16.5078 44.6719 16.0078C45.1641 15.4688 45.5664 14.6992 45.8789 13.6992H46.8867C46.457 15.1211 45.8164 16.2188 44.9648 16.9922C44.3398 17.5547 43.5664 17.9531 42.6445 18.1875L42.2812 19.9219C41.9766 21.4531 41.3672 22.5625 40.4531 23.25C39.7891 23.75 38.957 24 37.957 24ZM37.4062 22.125C37.6484 22.125 37.9062 21.9492 38.1797 21.5977C38.4453 21.2539 38.6523 20.7188 38.8008 19.9922L38.9414 19.3008C38.2148 19.5742 37.6719 19.8516 37.3125 20.1328C36.8359 20.4922 36.5977 20.8945 36.5977 21.3398C36.5977 21.5508 36.6641 21.7266 36.7969 21.8672C36.9453 22.0391 37.1484 22.125 37.4062 22.125ZM5.51953 32.7305L9.07031 32.2617L7.37109 40.2773C8.12891 40.2227 8.85156 39.8711 9.53906 39.2227C10.1641 38.6367 10.6602 37.8945 11.0273 36.9961C11.3867 36.1367 11.5664 35.2617 11.5664 34.3711C11.5664 33.4336 11.3359 32.6641 10.875 32.0625C10.625 31.7578 10.3086 31.5234 9.92578 31.3594C9.54297 31.1875 9.09766 31.1016 8.58984 31.1016C7.62109 31.1016 6.75 31.2344 5.97656 31.5C5.21094 31.7656 4.55859 32.1484 4.01953 32.6484C3.48047 33.1484 3.07031 33.7617 2.78906 34.4883C2.51562 35.2148 2.37891 36.0312 2.37891 36.9375C2.37891 37.4375 2.43359 37.8359 2.54297 38.1328C2.57422 38.2344 2.61328 38.3242 2.66016 38.4023C2.69141 38.457 2.70703 38.5117 2.70703 38.5664C1.83984 38.5664 1.20703 38.3945 0.808594 38.0508C0.363281 37.6758 0.140625 37.0703 0.140625 36.2344C0.140625 35.7109 0.253906 35.1953 0.480469 34.6875C0.707031 34.1719 1.02734 33.6758 1.44141 33.1992C1.83203 32.7461 2.29688 32.3242 2.83594 31.9336C3.38281 31.5352 3.97266 31.1914 4.60547 30.9023C5.93359 30.3008 7.25391 30 8.56641 30C10.418 30 11.8555 30.4805 12.8789 31.4414C13.332 31.8711 13.668 32.3672 13.8867 32.9297C14.1133 33.4922 14.2266 34.0898 14.2266 34.7227C14.2266 35.4961 14.0664 36.2656 13.7461 37.0312C13.4336 37.7969 12.9805 38.4805 12.3867 39.082C11.7617 39.7227 11.0156 40.2305 10.1484 40.6055C9.28906 40.9727 8.33984 41.1562 7.30078 41.1562H7.17188L5.70703 48H2.26172L5.51953 32.7305ZM17.7656 34.6992C17.5078 34.6992 17.2617 34.6523 17.0273 34.5586C16.793 34.457 16.5898 34.3203 16.418 34.1484C16.2461 33.9844 16.1094 33.7852 16.0078 33.5508C15.9141 33.3164 15.8672 33.0703 15.8672 32.8125C15.8672 32.5547 15.9141 32.3086 16.0078 32.0742C16.1094 31.8398 16.2461 31.6328 16.418 31.4531C16.5898 31.2734 16.793 31.1367 17.0273 31.043C17.2617 30.9414 17.5078 30.8906 17.7656 30.8906C18.0234 30.8906 18.2695 30.9414 18.5039 31.043C18.7383 31.1367 18.9453 31.2734 19.125 31.4531C19.3047 31.6328 19.4414 31.8398 19.5352 32.0742C19.6367 32.3086 19.6875 32.5547 19.6875 32.8125C19.6875 33.0703 19.6367 33.3164 19.5352 33.5508C19.4414 33.7852 19.3047 33.9844 19.125 34.1484C18.9453 34.3203 18.7383 34.457 18.5039 34.5586C18.2695 34.6523 18.0234 34.6992 17.7656 34.6992ZM16.1367 48.1406C15.3711 48.1406 14.7656 47.9141 14.3203 47.4609C13.8203 46.9609 13.5703 46.2305 13.5703 45.2695C13.5703 44.8164 13.6328 44.293 13.7578 43.6992L15.3867 36H18.8438L17.1211 44.1562C17.0586 44.3594 17.0273 44.6172 17.0273 44.9297C17.0273 45.2578 17.1016 45.4883 17.25 45.6211C17.4062 45.7539 17.6562 45.8203 18 45.8203C18.2344 45.8203 18.4609 45.7695 18.6797 45.668C18.9062 45.5586 19.1133 45.4102 19.3008 45.2227C19.6836 44.8398 19.9727 44.332 20.168 43.6992H21.1758C20.7461 44.9102 20.207 45.875 19.5586 46.5938C19.0117 47.1797 18.3945 47.6016 17.707 47.8594C17.207 48.0469 16.6836 48.1406 16.1367 48.1406ZM26.2969 37.3008H24.9609C24.5312 37.3008 24.2188 37.3203 24.0234 37.3594C23.7656 37.4062 23.6367 37.5117 23.6367 37.6758C23.6367 37.7148 23.6523 37.7383 23.6836 37.7461C23.7461 37.7617 23.8047 37.8164 23.8594 37.9102C23.8828 37.9648 23.8945 38.0625 23.8945 38.2031C23.8945 38.625 23.7617 38.9492 23.4961 39.1758C23.2461 39.3789 22.9492 39.4805 22.6055 39.4805C22.3242 39.4805 22.0742 39.3906 21.8555 39.2109C21.6211 39.0156 21.5039 38.7539 21.5039 38.4258C21.5039 38.1758 21.5703 37.9102 21.7031 37.6289C21.8359 37.3398 22.0195 37.0781 22.2539 36.8438C22.5039 36.5859 22.8008 36.3828 23.1445 36.2344C23.4961 36.0781 23.875 36 24.2812 36H30.457L24.5742 46.1484C24.6523 46.1562 24.9258 46.1836 25.3945 46.2305C25.7227 46.2773 26.0547 46.3008 26.3906 46.3008C26.7188 46.3008 26.9805 46.2656 27.1758 46.1953C27.3711 46.125 27.4883 46 27.5273 45.8203C27.3711 45.8047 27.2539 45.7539 27.1758 45.668C27.1055 45.5742 27.0703 45.457 27.0703 45.3164C27.0703 45.1992 27.0977 45.082 27.1523 44.9648C27.2148 44.8398 27.3008 44.7266 27.4102 44.625C27.6758 44.3984 28.0078 44.2852 28.4062 44.2852C28.7656 44.2852 29.0312 44.3906 29.2031 44.6016C29.3828 44.8125 29.4727 45.0898 29.4727 45.4336C29.4727 45.7148 29.4062 46.0078 29.2734 46.3125C29.1406 46.6094 28.9492 46.8828 28.6992 47.1328C28.4336 47.3984 28.1172 47.6094 27.75 47.7656C27.3906 47.9219 26.9883 48 26.543 48H20.1797L26.2969 37.3008ZM36.5859 37.3008H35.25C34.8203 37.3008 34.5078 37.3203 34.3125 37.3594C34.0547 37.4062 33.9258 37.5117 33.9258 37.6758C33.9258 37.7148 33.9414 37.7383 33.9727 37.7461C34.0352 37.7617 34.0938 37.8164 34.1484 37.9102C34.1719 37.9648 34.1836 38.0625 34.1836 38.2031C34.1836 38.625 34.0508 38.9492 33.7852 39.1758C33.5352 39.3789 33.2383 39.4805 32.8945 39.4805C32.6133 39.4805 32.3633 39.3906 32.1445 39.2109C31.9102 39.0156 31.793 38.7539 31.793 38.4258C31.793 38.1758 31.8594 37.9102 31.9922 37.6289C32.125 37.3398 32.3086 37.0781 32.543 36.8438C32.793 36.5859 33.0898 36.3828 33.4336 36.2344C33.7852 36.0781 34.1641 36 34.5703 36H40.7461L34.8633 46.1484C34.9414 46.1562 35.2148 46.1836 35.6836 46.2305C36.0117 46.2773 36.3438 46.3008 36.6797 46.3008C37.0078 46.3008 37.2695 46.2656 37.4648 46.1953C37.6602 46.125 37.7773 46 37.8164 45.8203C37.6602 45.8047 37.543 45.7539 37.4648 45.668C37.3945 45.5742 37.3594 45.457 37.3594 45.3164C37.3594 45.1992 37.3867 45.082 37.4414 44.9648C37.5039 44.8398 37.5898 44.7266 37.6992 44.625C37.9648 44.3984 38.2969 44.2852 38.6953 44.2852C39.0547 44.2852 39.3203 44.3906 39.4922 44.6016C39.6719 44.8125 39.7617 45.0898 39.7617 45.4336C39.7617 45.7148 39.6953 46.0078 39.5625 46.3125C39.4297 46.6094 39.2383 46.8828 38.9883 47.1328C38.7227 47.3984 38.4062 47.6094 38.0391 47.7656C37.6797 47.9219 37.2773 48 36.832 48H30.4688L36.5859 37.3008ZM43.6406 48.1406C42.7266 48.1406 41.9883 47.8555 41.4258 47.2852C40.7695 46.6133 40.4414 45.6133 40.4414 44.2852C40.4414 43.7227 40.5 43.1289 40.6172 42.5039C40.7266 41.8789 40.8906 41.2617 41.1094 40.6523C41.6094 39.2773 42.293 38.168 43.1602 37.3242C44.1602 36.3633 45.3125 35.8828 46.6172 35.8828C47.2656 35.8828 47.75 35.9961 48.0703 36.2227C48.3984 36.4414 48.5625 36.7344 48.5625 37.1016V37.2773L48.8203 36H52.2773L50.5547 44.1562C50.4844 44.3906 50.4492 44.6484 50.4492 44.9297C50.4492 45.6172 50.7773 45.9609 51.4336 45.9609C51.8711 45.9609 52.2695 45.7383 52.6289 45.293C52.9336 44.918 53.1836 44.3867 53.3789 43.6992H54.3867C53.957 44.918 53.4375 45.8828 52.8281 46.5938C52.3125 47.1797 51.7305 47.6016 51.082 47.8594C50.6055 48.0469 50.1016 48.1406 49.5703 48.1406C48.8906 48.1406 48.3477 47.957 47.9414 47.5898C47.543 47.2148 47.3008 46.6641 47.2148 45.9375C46.7617 46.5781 46.2852 47.0781 45.7852 47.4375C45.1445 47.9062 44.4297 48.1406 43.6406 48.1406ZM45.1992 45.8203C45.3789 45.8203 45.5664 45.7734 45.7617 45.6797C45.9648 45.5859 46.1602 45.4531 46.3477 45.2812C46.7695 44.875 47.0508 44.3477 47.1914 43.6992L48.3398 38.2852C48.3398 38.207 48.3203 38.1172 48.2812 38.0156C48.25 37.9062 48.2031 37.8047 48.1406 37.7109C47.9531 37.4844 47.6914 37.3711 47.3555 37.3711C47.0352 37.3711 46.7227 37.4766 46.418 37.6875C46.1211 37.8984 45.8398 38.1914 45.5742 38.5664C45.1055 39.2461 44.7188 40.1328 44.4141 41.2266C44.2734 41.7109 44.168 42.1914 44.0977 42.668C44.0273 43.1367 43.9922 43.5625 43.9922 43.9453C43.9922 44.7422 44.1406 45.2812 44.4375 45.5625C44.5391 45.6719 44.6523 45.7422 44.7773 45.7734C44.9023 45.8047 45.043 45.8203 45.1992 45.8203ZM55.0195 36H58.4766L58.1719 37.4883C58.7188 37.0039 59.1641 36.6602 59.5078 36.457C60.0391 36.1523 60.5586 36 61.0664 36C61.582 36 61.9961 36.1836 62.3086 36.5508C62.4492 36.7148 62.5547 36.9062 62.625 37.125C62.6953 37.3359 62.7305 37.5625 62.7305 37.8047C62.7305 38.0234 62.6953 38.2344 62.625 38.4375C62.5547 38.6406 62.4492 38.8242 62.3086 38.9883C62.1523 39.1602 61.9609 39.2969 61.7344 39.3984C61.5156 39.5 61.2695 39.5508 60.9961 39.5508C60.7852 39.5508 60.6172 39.5156 60.4922 39.4453C60.3672 39.375 60.2695 39.2734 60.1992 39.1406C60.1367 39.0078 60.0938 38.8789 60.0703 38.7539C60 38.418 59.9297 38.1953 59.8594 38.0859C59.8047 38.0078 59.7188 37.9688 59.6016 37.9688C59.2656 37.9688 58.9805 38.0391 58.7461 38.1797C58.5117 38.3203 58.2148 38.5547 57.8555 38.8828L55.9336 48H52.4766L55.0195 36ZM66.4219 34.6992C66.1641 34.6992 65.918 34.6523 65.6836 34.5586C65.4492 34.457 65.2461 34.3203 65.0742 34.1484C64.9023 33.9844 64.7656 33.7852 64.6641 33.5508C64.5703 33.3164 64.5234 33.0703 64.5234 32.8125C64.5234 32.5547 64.5703 32.3086 64.6641 32.0742C64.7656 31.8398 64.9023 31.6328 65.0742 31.4531C65.2461 31.2734 65.4492 31.1367 65.6836 31.043C65.918 30.9414 66.1641 30.8906 66.4219 30.8906C66.6797 30.8906 66.9258 30.9414 67.1602 31.043C67.3945 31.1367 67.6016 31.2734 67.7812 31.4531C67.9609 31.6328 68.0977 31.8398 68.1914 32.0742C68.293 32.3086 68.3438 32.5547 68.3438 32.8125C68.3438 33.0703 68.293 33.3164 68.1914 33.5508C68.0977 33.7852 67.9609 33.9844 67.7812 34.1484C67.6016 34.3203 67.3945 34.457 67.1602 34.5586C66.9258 34.6523 66.6797 34.6992 66.4219 34.6992ZM64.793 48.1406C64.0273 48.1406 63.4219 47.9141 62.9766 47.4609C62.4766 46.9609 62.2266 46.2305 62.2266 45.2695C62.2266 44.8164 62.2891 44.293 62.4141 43.6992L64.043 36H67.5L65.7773 44.1562C65.7148 44.3594 65.6836 44.6172 65.6836 44.9297C65.6836 45.2578 65.7578 45.4883 65.9062 45.6211C66.0625 45.7539 66.3125 45.8203 66.6562 45.8203C66.8906 45.8203 67.1172 45.7695 67.3359 45.668C67.5625 45.5586 67.7695 45.4102 67.957 45.2227C68.3398 44.8398 68.6289 44.332 68.8242 43.6992H69.832C69.4023 44.9102 68.8633 45.875 68.2148 46.5938C67.668 47.1797 67.0508 47.6016 66.3633 47.8594C65.8633 48.0469 65.3398 48.1406 64.793 48.1406ZM71.7188 48.1406C70.8047 48.1406 70.0664 47.8555 69.5039 47.2852C68.8477 46.6133 68.5195 45.6133 68.5195 44.2852C68.5195 43.7227 68.5781 43.1289 68.6953 42.5039C68.8047 41.8789 68.9688 41.2617 69.1875 40.6523C69.6875 39.2773 70.3711 38.168 71.2383 37.3242C72.2383 36.3633 73.3906 35.8828 74.6953 35.8828C75.3438 35.8828 75.8281 35.9961 76.1484 36.2227C76.4766 36.4414 76.6406 36.7344 76.6406 37.1016V37.2773L76.8984 36H80.3555L78.6328 44.1562C78.5625 44.3906 78.5273 44.6484 78.5273 44.9297C78.5273 45.6172 78.8555 45.9609 79.5117 45.9609C79.9492 45.9609 80.3477 45.7383 80.707 45.293C81.0117 44.918 81.2617 44.3867 81.457 43.6992H82.4648C82.0352 44.918 81.5156 45.8828 80.9062 46.5938C80.3906 47.1797 79.8086 47.6016 79.1602 47.8594C78.6836 48.0469 78.1797 48.1406 77.6484 48.1406C76.9688 48.1406 76.4258 47.957 76.0195 47.5898C75.6211 47.2148 75.3789 46.6641 75.293 45.9375C74.8398 46.5781 74.3633 47.0781 73.8633 47.4375C73.2227 47.9062 72.5078 48.1406 71.7188 48.1406ZM73.2773 45.8203C73.457 45.8203 73.6445 45.7734 73.8398 45.6797C74.043 45.5859 74.2383 45.4531 74.4258 45.2812C74.8477 44.875 75.1289 44.3477 75.2695 43.6992L76.418 38.2852C76.418 38.207 76.3984 38.1172 76.3594 38.0156C76.3281 37.9062 76.2812 37.8047 76.2188 37.7109C76.0312 37.4844 75.7695 37.3711 75.4336 37.3711C75.1133 37.3711 74.8008 37.4766 74.4961 37.6875C74.1992 37.8984 73.918 38.1914 73.6523 38.5664C73.1836 39.2461 72.7969 40.1328 72.4922 41.2266C72.3516 41.7109 72.2461 42.1914 72.1758 42.668C72.1055 43.1367 72.0703 43.5625 72.0703 43.9453C72.0703 44.7422 72.2188 45.2812 72.5156 45.5625C72.6172 45.6719 72.7305 45.7422 72.8555 45.7734C72.9805 45.8047 73.1211 45.8203 73.2773 45.8203Z" fill="#F07807"/>
</svg>
